# xmcd
#
# Track frame offsets: 
#        300
#        18339
#        51368
#        63651
#        81686
#        96045
#        125016
#        142068
#        166491
#        187775
#        197996
#        218242
#        238408
#        254898
#        290992
#
# Disc length: 4030 seconds
#
# Revision: 1
# Processed by: cddbd v1.5.2PL0 Copyright (c) Steve Scherf et al.
# Submitted via: ExactAudioCopy v0.99pb5
#
DISCID=000fba0f
DTITLE=Bob Margolin - All-Star Blues Jam
DYEAR=2003
DGENRE=Blues
TTITLE0=Brutal-Hearted Woman 
TTITLE1=Sweet (Little) Black Angel 
TTITLE2=One Day You're Gonna Get Lucky 
TTITLE3=I'll Take Care Of You 
TTITLE4=Juke
TTITLE5=Mean Old Chicago
TTITLE6=Always On My Mind
TTITLE7=Easy To Love You
TTITLE8=Last Time
TTITLE9=Maybe The Hippies Were Right 
TTITLE10=County Boy
TTITLE11=Crazy 'Bout You Baby 
TTITLE12=My New Baby Owns A Whiskey Store
TTITLE13=Goin' Down Slow 
TTITLE14=Just a Closer Walk with Thee
EXTD=YEAR: 2003
EXTT0=
EXTT1=
EXTT2=
EXTT3=
EXTT4=
EXTT5=
EXTT6=
EXTT7=
EXTT8=
EXTT9=
EXTT10=
EXTT11=
EXTT12=
EXTT13=
EXTT14=
PLAYORDER=
